<?xml version="1.0" standalone="no"?>
<!DOCTYPE svg PUBLIC "-//W3C//DTD SVG 20010904//EN"
 "http://www.w3.org/TR/2001/REC-SVG-20010904/DTD/svg10.dtd">
<svg version="1.0" xmlns="http://www.w3.org/2000/svg"
 width="80.000000pt" height="80.000000pt" viewBox="0 0 80.000000 80.000000"
 preserveAspectRatio="xMidYMid meet">

<g transform="translate(0.000000,80.000000) scale(0.100000,-0.100000)"
fill="#000000" stroke="none">
<path d="M287 783 c-4 -3 -7 -75 -7 -160 l0 -153 115 0 115 0 0 128 0 128 -33
32 c-31 30 -37 32 -108 32 -42 0 -79 -3 -82 -7z m153 -48 c0 -20 5 -25 25 -25
l26 0 -3 -112 -3 -113 -92 -3 -93 -3 0 141 0 140 70 0 c68 0 70 -1 70 -25z"/>
<path d="M330 720 c0 -5 18 -10 39 -10 22 0 43 5 46 10 4 6 -12 10 -39 10 -25
0 -46 -4 -46 -10z"/>
<path d="M330 670 c0 -6 28 -10 65 -10 37 0 65 4 65 10 0 6 -28 10 -65 10 -37
0 -65 -4 -65 -10z"/>
<path d="M330 620 c0 -6 28 -10 65 -10 37 0 65 4 65 10 0 6 -28 10 -65 10 -37
0 -65 -4 -65 -10z"/>
<path d="M330 570 c0 -6 28 -10 65 -10 37 0 65 4 65 10 0 6 -28 10 -65 10 -37
0 -65 -4 -65 -10z"/>
<path d="M330 520 c0 -6 28 -10 65 -10 37 0 65 4 65 10 0 6 -28 10 -65 10 -37
0 -65 -4 -65 -10z"/>
<path d="M552 742 c-9 -7 -12 -48 -10 -173 l3 -164 115 0 115 0 8 149 c12 202
16 196 -115 196 -57 0 -109 -4 -116 -8z m211 -119 c4 -58 7 -128 7 -155 l0
-48 -105 0 -105 0 0 148 c0 82 3 152 7 155 3 4 48 7 98 7 l92 0 6 -107z"/>
<path d="M630 685 c-6 -8 -9 -23 -5 -35 3 -11 2 -20 -3 -20 -11 0 -33 -46 -25
-54 4 -3 35 -6 70 -6 67 0 76 9 48 46 -8 10 -15 28 -15 40 0 40 -45 59 -70 29z
m45 -16 c10 -15 -1 -23 -20 -15 -9 3 -13 10 -10 16 8 13 22 13 30 -1z m23 -66
c2 -9 -9 -13 -38 -13 -37 0 -41 2 -30 16 15 17 61 15 68 -3z"/>
<path d="M590 510 c0 -6 30 -10 70 -10 40 0 70 4 70 10 0 6 -30 10 -70 10 -40
0 -70 -4 -70 -10z"/>
<path d="M590 470 c0 -6 30 -10 70 -10 40 0 70 4 70 10 0 6 -30 10 -70 10 -40
0 -70 -4 -70 -10z"/>
<path d="M61 694 c-33 -28 -52 -77 -44 -118 8 -40 54 -83 98 -92 80 -15 156
61 141 141 -17 89 -126 128 -195 69z m69 -8 c0 -3 -4 -8 -10 -11 -5 -3 -10 -1
-10 4 0 6 5 11 10 11 6 0 10 -2 10 -4z m-66 -48 c-8 -28 -12 -33 -20 -25 -9 8
6 47 17 47 6 0 7 -10 3 -22z m164 -7 c4 -28 -13 -20 -21 9 -3 14 -1 20 6 17 7
-2 14 -14 15 -26z m-102 8 c9 -15 -11 -33 -30 -26 -9 4 -13 13 -10 22 7 17 30
20 40 4z m62 -12 c2 -12 -3 -17 -17 -17 -15 0 -21 6 -21 21 0 25 33 22 38 -4z
m-123 -58 c4 -11 4 -23 0 -27 -7 -7 -25 17 -25 36 0 20 18 14 25 -9z m65 6 c0
-21 -30 -31 -41 -14 -14 23 -11 29 16 29 16 0 25 -6 25 -15z m58 -2 c-2 -10
-10 -18 -18 -18 -8 0 -16 8 -18 18 -2 12 3 17 18 17 15 0 20 -5 18 -17z m43
-5 c-4 -12 -14 -24 -21 -26 -9 -3 -11 1 -7 12 4 10 7 22 7 27 0 5 7 9 15 9 11
0 12 -6 6 -22z"/>
<path d="M380 424 c0 -14 -4 -23 -10 -19 -15 9 -12 -8 7 -34 l16 -24 19 23
c22 27 23 44 3 36 -11 -4 -15 1 -15 19 0 14 -4 25 -10 25 -5 0 -10 -12 -10
-26z"/>
<path d="M70 350 c0 -47 4 -80 10 -80 6 0 10 33 10 80 0 47 -4 80 -10 80 -6 0
-10 -33 -10 -80z"/>
<path d="M700 320 c0 -32 4 -49 10 -45 6 3 10 24 10 45 0 21 -4 42 -10 45 -6
4 -10 -13 -10 -45z"/>
<path d="M329 331 c-47 -7 -99 -34 -99 -51 0 -15 11 -12 24 6 34 46 247 43
283 -4 7 -8 16 -13 19 -9 11 11 -15 35 -49 46 -47 14 -126 20 -178 12z"/>
</g>
</svg>
